<svg width="92" height="16" viewBox="0 0 92 16" fill="none" xmlns="http://www.w3.org/2000/svg">
<g clip-path="url(#clip0_5856_6529)">
<mask id="mask0_5856_6529" style="mask-type:luminance" maskUnits="userSpaceOnUse" x="0" y="0" width="92" height="16">
<path d="M91.0276 0H0V16H91.0276V0Z" fill="white"/>
</mask>
<g mask="url(#mask0_5856_6529)">
<path fill-rule="evenodd" clip-rule="evenodd" d="M56.1404 0V2.56642H45.995V5.61404C46.356 5.37344 46.7169 5.21303 47.0777 5.09274C47.4386 4.97243 47.7995 4.93233 48.2407 4.93233C48.8021 4.93233 49.3233 5.01254 49.7645 5.21303C50.2056 5.41354 50.6065 5.65414 50.9274 6.01504C51.2883 6.37595 51.5289 6.77694 51.6893 7.25812C51.8497 7.77943 51.9299 8.30074 51.9299 8.90229C51.9299 9.26318 51.8897 9.6642 51.7695 10.0651C51.6893 10.4661 51.5289 10.8672 51.3284 11.2682C51.1278 11.6692 50.8873 12.0702 50.6467 12.4311C50.4061 12.792 50.1254 13.1128 49.8446 13.4336L48.1204 11.3083C48.2219 11.2067 48.3074 11.0891 48.3972 10.9655C48.4492 10.8939 48.5026 10.8204 48.5614 10.7469C48.7218 10.5063 48.8421 10.3058 48.9624 10.0651C49.0497 9.89071 49.1159 9.71629 49.1761 9.55713C49.199 9.49677 49.2211 9.43859 49.2432 9.38348C49.3233 9.18294 49.3635 8.98247 49.3635 8.82205C49.3635 8.58146 49.3233 8.34086 49.2432 8.18044C49.163 7.97997 49.0427 7.85968 48.9224 7.73938C48.802 7.61908 48.6417 7.53884 48.5214 7.49879C48.4011 7.45867 48.2808 7.41854 48.1604 7.41854C47.9599 7.41854 47.7595 7.41854 47.5991 7.49879C47.5601 7.51818 47.5188 7.53765 47.4763 7.55775C47.3437 7.6202 47.1992 7.68833 47.0777 7.77943C47.031 7.81451 46.9808 7.84959 46.9292 7.88565C46.8038 7.97332 46.6701 8.0668 46.5564 8.18044L46.0351 8.70175V14.4361H43.2682V10.5864C42.9073 10.787 42.5063 10.9474 42.0652 11.1078C41.584 11.2682 41.1429 11.3483 40.7018 11.3483C39.98 11.3483 39.3384 11.228 38.8171 10.9875C38.2958 10.7469 37.8948 10.4661 37.574 10.1053C37.2532 9.74437 37.0125 9.34336 36.8922 8.90229C36.7719 8.46116 36.6918 8.02003 36.6918 7.61908C36.6918 7.09778 36.8121 6.57645 37.0125 6.13535C37.2131 5.69424 37.4938 5.29324 37.8547 4.97243C38.2156 4.65163 38.6567 4.41103 39.1779 4.21053C39.6993 4.01003 40.2607 3.92982 40.8622 3.92982C41.3835 3.92982 41.8246 3.96993 42.2256 4.09023C42.6266 4.21053 42.9875 4.33083 43.2682 4.45113V2.56642H36.8522H36.0903H34.2858V14.4361H31.5188V2.60652H31.0376H30.2757H26.7469V6.61655H24.4612C22.2556 6.61655 21.1328 7.41854 21.1328 8.94235C21.1328 9.34336 21.2131 9.70425 21.3734 10.0651C21.5339 10.4261 21.7344 10.7067 22.015 10.9474C22.2958 11.188 22.6166 11.3885 22.9775 11.5088C23.3384 11.6291 23.7394 11.7093 24.1804 11.7093C25.183 11.7093 26.3058 11.1479 27.5489 10.0251L29.5138 11.9499C27.9499 13.594 26.1454 14.396 24.1404 14.396C23.3384 14.396 22.6166 14.2356 21.9349 13.9549C21.2531 13.6742 20.6517 13.2732 20.1303 12.792C19.609 12.3108 19.208 11.7494 18.8873 11.1078C18.6065 10.4661 18.4461 9.78449 18.4461 9.06264C18.4461 8.22057 18.5664 7.49879 18.8471 6.85715C19.1278 6.21554 19.4887 5.69424 19.9699 5.25314C20.4512 4.81204 21.0527 4.49123 21.7344 4.25063C22.416 4.05013 23.1779 3.92982 24.0601 3.92982V2.56642H18.2457H17.4837H9.90479V4.33083C10.1454 4.21053 10.3459 4.17043 10.5864 4.13033C10.8271 4.09023 11.0677 4.09023 11.3083 4.09023C11.99 4.09023 12.5915 4.21053 13.1529 4.41103C13.7143 4.61153 14.1955 4.93233 14.5965 5.29324C14.9975 5.65414 15.3183 6.13535 15.5589 6.65665C15.7995 7.21807 15.9198 7.81955 15.9198 8.46116C15.9198 8.86217 15.8396 9.30324 15.7594 9.70425C15.6391 10.1053 15.4787 10.5464 15.2782 10.9474C15.0777 11.3483 14.797 11.7494 14.4762 12.1504C14.1554 12.5514 13.7544 12.9123 13.2732 13.2732L11.7494 11.1479C12.6717 10.3058 13.1128 9.4236 13.1128 8.46116C13.1128 7.89973 12.9524 7.45867 12.6316 7.13783C12.3108 6.81705 11.8697 6.65665 11.3083 6.65665C10.7068 6.65665 10.2256 6.89725 9.94484 7.29825V14.4361H7.17795V10.1454C6.49624 10.4661 5.81454 10.6266 5.05264 10.6266C4.49123 10.6266 4.01003 10.5063 3.52883 10.2657C3.08772 10.0251 2.64662 9.70425 2.32582 9.30324C2.00502 8.90229 1.72432 8.42104 1.52381 7.89973C1.32331 7.37842 1.24311 6.81705 1.24311 6.21554V2.56642H0V0H17.5238H18.2857H30.396H31.1579H36.2506H37.0125H56.1404ZM6.29575 7.85968C6.61655 7.69926 6.93735 7.45867 7.17795 7.13783V2.56642H4.01003V6.29575C4.01003 6.53635 4.05013 6.77695 4.09023 7.01753C4.13033 7.21807 4.21053 7.41854 4.33083 7.57896C4.45113 7.73938 4.57144 7.89973 4.73183 7.97997C4.89224 8.10027 5.05264 8.14039 5.25314 8.14039C5.61404 8.14039 5.97494 8.02003 6.29575 7.85968ZM43.1765 7.64765C43.252 7.59626 43.3236 7.54752 43.3885 7.49879V7.29825C43.2682 7.21807 43.1078 7.13783 42.9474 7.05765C42.7871 6.97746 42.5866 6.89727 42.386 6.81707C42.1855 6.73688 41.985 6.65665 41.7444 6.61655C41.5038 6.57645 41.2632 6.53634 40.9825 6.53634C40.0602 6.53634 39.579 6.85715 39.579 7.49879C39.579 7.89973 39.6993 8.22057 39.9399 8.42104C40.1805 8.62158 40.5013 8.74187 40.8622 8.74187C41.0627 8.74187 41.2632 8.70175 41.5038 8.62158C41.683 8.56185 41.8399 8.47993 42.0076 8.39226C42.0652 8.36222 42.124 8.33148 42.1855 8.30074C42.2389 8.26874 42.2952 8.23667 42.3527 8.2039C42.5113 8.11357 42.68 8.01744 42.8271 7.89973C42.9464 7.80436 43.0657 7.72314 43.1765 7.64765ZM3.44858 16L1.72427 14.3158L3.44858 12.5915L5.17289 14.3158L3.44858 16Z" fill="#55268E"/>
<path fill-rule="evenodd" clip-rule="evenodd" d="M58.9473 10.5063V14.7168H54.7368V0H62.0751C65.5639 0 67.3283 1.76441 67.3283 5.25314C67.3283 8.74187 65.5639 10.5063 62.0751 10.5063H58.9473ZM58.9473 4.21053V6.29575H62.0751C62.7568 6.29575 63.1177 5.93484 63.1177 5.25314C63.1177 4.57143 62.7568 4.21053 62.0751 4.21053H58.9473ZM70.2557 13.6341L69.8947 14.6767H65.6842L70.937 0H75.1481L80.4011 14.6767H76.1907L75.8294 13.6341H70.2557ZM74.4262 9.42353L73.0222 5.21303L71.619 9.42353H74.4262ZM81.3632 7.33837L81.604 7.73938H81.5641V14.7168H85.7745V7.85968L86.0952 7.37842L91.0275 0H86.2955L83.6893 3.80953L81.123 0H76.3511L81.3632 7.33837Z" fill="url(#paint0_linear_5856_6529)"/>
</g>
</g>
<defs>
<linearGradient id="paint0_linear_5856_6529" x1="54.7368" y1="14.7168" x2="65.3247" y2="-10.2571" gradientUnits="userSpaceOnUse">
<stop stop-color="#F6462D"/>
<stop offset="1" stop-color="#FFC837"/>
</linearGradient>
<clipPath id="clip0_5856_6529">
<rect width="92" height="16" fill="white"/>
</clipPath>
</defs>
</svg>
