<svg width="149" height="40" viewBox="0 0 149 40" fill="none" xmlns="http://www.w3.org/2000/svg">
<g clip-path="url(#clip0_3422_238)">
<path d="M60.1856 0H20.0938V40H60.1856V0Z" fill="white"/>
<path d="M80.2315 20.0471L60.1855 0V40.0471L80.2315 20.0471Z" fill="#DB0011"/>
<path d="M40.1397 20.0471L60.1856 0H20.0938L40.1397 20.0471Z" fill="#DB0011"/>
<path d="M0 20.0471L20.0931 40.0471V0L0 20.0471Z" fill="#DB0011"/>
<path d="M40.1397 20.0469L20.0938 40.0469H60.1856L40.1397 20.0469Z" fill="#DB0011"/>
<path d="M97.8233 21.225H90.5596V28.3779H86.9277V11.625H90.5596V18.4956H97.8233V11.625H101.455V28.3779H97.8233V21.225Z" fill="black"/>
<path d="M110.229 28.7045C106.597 28.7045 103.625 27.2457 103.578 23.2457H107.21C107.257 25.034 108.295 26.1163 110.276 26.1163C111.738 26.1163 113.436 25.3634 113.436 23.7163C113.436 22.3987 112.304 22.0222 110.417 21.4575L109.191 21.1281C106.55 20.3751 103.908 19.3398 103.908 16.3281C103.908 12.6104 107.399 11.3398 110.559 11.3398C113.813 11.3398 116.643 12.4693 116.69 16.1869H113.059C112.917 14.681 112.021 13.7869 110.323 13.7869C108.955 13.7869 107.634 14.4928 107.634 15.9987C107.634 17.2222 108.766 17.5987 111.125 18.3516L112.54 18.7751C115.417 19.6693 117.257 20.6575 117.257 23.481C117.209 27.2457 113.53 28.7045 110.229 28.7045Z" fill="black"/>
<path d="M119.285 11.6693H125.134C126.219 11.6223 127.351 11.6693 128.436 11.8576C130.464 12.3281 132.02 13.6458 132.02 15.9046C132.02 18.0693 130.652 19.1517 128.671 19.6693C130.935 20.0928 132.633 21.2223 132.633 23.7164C132.633 27.5281 128.86 28.3752 125.936 28.3752H119.332L119.285 11.6693ZM125.134 18.634C126.738 18.634 128.388 18.3046 128.388 16.3752C128.388 14.634 126.879 14.1634 125.37 14.1634H122.823V18.634H125.134ZM125.464 25.8811C127.162 25.8811 128.813 25.5046 128.813 23.434C128.813 21.3634 127.398 20.987 125.653 20.987H122.775V25.8811H125.464Z" fill="black"/>
<path d="M142.066 28.7047C136.642 28.7047 134.236 25.2694 134.236 20.14C134.236 15.0106 136.925 11.293 142.255 11.293C145.604 11.293 148.858 12.7989 148.952 16.5636H145.179C144.99 14.8694 143.858 14.0224 142.255 14.0224C138.953 14.0224 137.963 17.5518 137.963 20.2341C137.963 22.9165 138.953 26.0224 142.113 26.0224C143.764 26.0224 144.99 25.1283 145.226 23.4341H149C148.622 27.293 145.556 28.7047 142.066 28.7047Z" fill="black"/>
</g>
<defs>
<clipPath id="clip0_3422_238">
<rect width="149" height="40" fill="white"/>
</clipPath>
</defs>
</svg>
