<svg width="73" height="16" viewBox="0 0 73 16" fill="none" xmlns="http://www.w3.org/2000/svg">
<mask id="mask0_3822_1414" style="mask-type:luminance" maskUnits="userSpaceOnUse" x="2" y="1" width="70" height="14">
<path d="M71.5 1H2.5V15H71.5V1Z" fill="white"/>
</mask>
<g mask="url(#mask0_3822_1414)">
<path d="M5.94212 4.04229C8.96322 0.863589 12.6152 0.0423892 14.0721 2.21419C15.5285 4.38549 14.2536 8.74959 11.2318 11.9277C8.21182 15.1058 4.55942 15.9266 3.10252 13.7554C1.64616 11.5832 2.92142 7.22009 5.94212 4.04229Z" fill="#F58220"/>
<path d="M7.94145 2.34708C7.61635 2.60598 7.27055 2.90868 6.94415 3.25478C4.29635 6.02188 3.19685 9.82648 4.50055 11.7286C5.84415 13.6315 9.10245 12.9396 11.7904 10.13C13.2366 8.63738 14.2142 6.88658 14.6211 5.26568C14.7435 4.07688 14.5804 3.01688 14.0711 2.21758C12.9109 0.531076 10.4261 0.660677 7.94145 2.34708Z" fill="#B02A30"/>
<path d="M9.43857 13.4982C8.02407 14.6251 6.56336 15.184 5.13766 14.9499C5.73576 14.9829 6.21937 14.2785 6.61547 13.3318C7.01767 12.3624 7.25886 11.4631 7.45186 10.6216C7.73226 9.2894 7.75406 8.337 7.61106 8.1331C7.36936 7.794 6.81966 7.8819 6.19746 8.2612C5.89926 8.4362 5.50357 8.31861 5.97147 7.71771C6.44547 7.10991 8.32726 5.6501 9.00436 5.4219C9.74766 5.1944 10.5948 5.5041 10.3081 6.3682C10.1047 6.9989 7.50117 14.2512 9.43857 13.4982ZM11.5689 2.24991C11.9207 2.62351 11.706 3.44181 11.1064 4.08381C10.5014 4.72071 9.71346 4.94841 9.37226 4.58041C9.00946 4.21241 9.22396 3.38281 9.82926 2.73431C10.4402 2.08641 11.2273 1.88721 11.5689 2.24991Z" fill="white"/>
<path d="M14.5923 14.8718L16.3594 8.01491H18.6473L16.88 14.8718H14.5923ZM24.184 10.2251C24.209 9.89371 24.1372 9.64431 23.9664 9.47581C23.7959 9.30921 23.5287 9.2257 23.1654 9.2257C22.5844 9.2257 22.0899 9.41441 21.6782 9.79021C21.2689 10.1668 20.9745 10.701 20.7951 11.3963C20.6225 12.0662 20.6449 12.5802 20.8607 12.9391C21.0765 13.299 21.4701 13.4782 22.0433 13.4782C22.4626 13.4782 22.8238 13.3758 23.1279 13.1688C23.4296 12.9645 23.6629 12.6608 23.8257 12.2617H26.1946C25.8781 13.16 25.3395 13.8229 24.582 14.2509C23.8228 14.6783 22.7987 14.8932 21.5094 14.8932C20.2658 14.8932 19.375 14.5945 18.8335 13.9955C18.2941 13.3978 18.163 12.5614 18.439 11.4886C18.7422 10.3138 19.3331 9.40811 20.2137 8.77141C21.0951 8.13521 22.2011 7.81641 23.5281 7.81641C24.6807 7.81641 25.5101 8.01811 26.0158 8.42261C26.5203 8.82691 26.6973 9.42871 26.5431 10.2251H24.184ZM26.1499 14.8718L27.9174 8.01491H30.2047L28.4373 14.8718H26.1499ZM35.7416 10.2251C35.767 9.89371 35.6943 9.64431 35.5241 9.47581C35.3535 9.30921 35.0875 9.2257 34.7228 9.2257C34.1423 9.2257 33.6479 9.41441 33.2365 9.79021C32.8259 10.1668 32.5322 10.701 32.3531 11.3963C32.1805 12.0662 32.2032 12.5802 32.4184 12.9391C32.6341 13.299 33.0275 13.4782 33.6006 13.4782C34.0206 13.4782 34.3814 13.3758 34.6853 13.1688C34.9879 12.9645 35.2211 12.6608 35.3843 12.2617H37.7516C37.436 13.16 36.8978 13.8229 36.1391 14.2509C35.381 14.6783 34.356 14.8932 33.0677 14.8932C31.824 14.8932 30.9326 14.5945 30.3915 13.9955C29.8518 13.3978 29.7205 12.5614 29.9971 11.4886C30.2998 10.3138 30.8906 9.40811 31.7719 8.77141C32.6528 8.13521 33.7587 7.81641 35.0863 7.81641C36.2381 7.81641 37.0683 8.01811 37.5743 8.42261C38.0779 8.82691 38.2547 9.42871 38.1004 10.2251H35.7416ZM37.7076 14.8718L39.475 8.01491H41.7626L39.9952 14.8718H37.7076ZM46.6552 9.40451L46.2864 10.8366H47.4665C47.7547 10.8366 47.984 10.7758 48.1572 10.6571C48.3301 10.5389 48.4483 10.3581 48.5092 10.1206C48.5704 9.88561 48.545 9.70621 48.4324 9.58601C48.3189 9.46511 48.1203 9.40451 47.8356 9.40451H46.6552ZM45.9929 11.9762L45.6054 13.4816H46.962C47.2836 13.4816 47.5433 13.4185 47.7402 13.2915C47.9382 13.164 48.0691 12.9771 48.133 12.7276C48.1968 12.4804 48.1631 12.2931 48.0334 12.1663C47.9019 12.0393 47.6752 11.9762 47.3501 11.9762H45.9929ZM43.0737 14.8718L44.8408 8.01491H48.9883C49.481 8.01491 49.8368 8.03501 50.0517 8.07771C50.2686 8.11951 50.4513 8.18731 50.5979 8.28441C50.7968 8.41501 50.9274 8.59761 50.9892 8.83331C51.051 9.06881 51.0412 9.3462 50.9591 9.665C50.8595 10.0522 50.6694 10.3697 50.3869 10.6173C50.1055 10.8661 49.7121 11.0632 49.2044 11.2074C49.7352 11.344 50.0916 11.5566 50.2734 11.846C50.4551 12.133 50.4809 12.525 50.3544 13.0172C50.1974 13.6246 49.9022 14.0846 49.4692 14.4006C49.0353 14.715 48.4743 14.8718 47.7851 14.8718H43.0737ZM54.6937 12.7995C53.9982 12.7995 53.5124 12.845 53.2357 12.9391C52.9594 13.0313 52.7906 13.1948 52.7303 13.4263C52.6904 13.583 52.7206 13.7069 52.8199 13.796C52.9195 13.8832 53.0817 13.9275 53.3046 13.9275C53.6702 13.9275 53.9687 13.8408 54.1966 13.6658C54.4244 13.4901 54.584 13.2262 54.6739 12.8742L54.6937 12.7995ZM54.3869 14.1644C54.1114 14.4402 53.7922 14.6447 53.4308 14.7783C53.0693 14.912 52.6561 14.9786 52.19 14.9786C51.5268 14.9786 51.0492 14.8577 50.7545 14.6168C50.459 14.3736 50.3691 14.0323 50.4832 13.588C50.6387 12.985 51.0595 12.5488 51.7435 12.2805C52.4294 12.012 53.4952 11.8724 54.9449 11.8597L54.9638 11.8062L54.9833 11.7487C55.0463 11.5033 55.0209 11.3207 54.9094 11.1986C54.7962 11.0773 54.5967 11.017 54.3092 11.017C54.0488 11.017 53.8372 11.0619 53.6752 11.1487C53.5135 11.2378 53.3971 11.3709 53.3235 11.5476H51.3365C51.4822 11.017 51.828 10.6239 52.3768 10.3647C52.9233 10.1065 53.6912 9.97591 54.6777 9.97591C55.6241 9.97591 56.29 10.1268 56.6751 10.4299C57.0602 10.7315 57.1725 11.1924 57.0132 11.809L56.3857 14.2435C56.3464 14.3965 56.3213 14.518 56.3112 14.6118C56.3012 14.7037 56.3027 14.7909 56.3148 14.8718H54.3192C54.3083 14.7574 54.3103 14.6419 54.3216 14.5261C54.3331 14.4084 54.3553 14.2901 54.3869 14.1644ZM57.0306 14.8718L58.0562 10.8919C58.0979 10.73 58.1283 10.5825 58.1475 10.4463C58.1688 10.3098 58.1794 10.1915 58.1803 10.092H60.3317C60.3399 10.1668 60.3334 10.2652 60.3145 10.387C60.2953 10.5093 60.2607 10.6684 60.2105 10.8633C60.5569 10.5633 60.9039 10.3393 61.2529 10.195C61.6034 10.0491 61.9664 9.97591 62.3435 9.97591C63.0425 9.97591 63.5257 10.1602 63.7935 10.5298C64.0622 10.8985 64.1044 11.4377 63.9218 12.1475L63.2189 14.8718H61.0729L61.7571 12.2169C61.8511 11.8525 61.8514 11.5846 61.7571 11.4174C61.6628 11.2505 61.4675 11.1664 61.1713 11.1664C60.8229 11.1664 60.5341 11.2774 60.3042 11.5011C60.0751 11.7255 59.9019 12.0602 59.7858 12.5102L59.1775 14.8718H57.0306ZM66.0982 14.8718H63.9791L65.7471 8.01491H67.8656L66.8294 12.0365L68.9642 10.092H71.5012L69.1241 12.2169L70.7544 14.8718H68.0761L66.7186 12.4629L66.0982 14.8718Z" fill="#004A80"/>
</g>
</svg>
