<svg width="69" height="16" viewBox="0 0 69 16" fill="none" xmlns="http://www.w3.org/2000/svg">
<path fill-rule="evenodd" clip-rule="evenodd" d="M8.71769 9.72214L8.30956 11.8184H6.52576C6.66134 11.1245 6.79726 10.3804 6.95136 9.67054C6.98281 9.51646 7.01775 9.35883 7.05094 9.18696C7.05094 9.06527 7.06737 8.94428 7.08589 8.82294C7.15332 7.97499 6.55896 7.81842 5.98311 8.07854C5.64033 8.21695 5.48763 8.45857 5.32026 8.77135C5.16546 9.04854 5.11689 9.30723 5.04666 9.65346L4.60464 11.8184H2.83691L3.87295 6.65875C4.41735 6.64132 4.96 6.62388 5.50545 6.60787C5.43836 6.93595 5.3531 7.24802 5.30209 7.57681C5.96599 6.76301 6.81229 6.34811 7.80045 6.64132C8.78582 6.91851 8.99128 7.9241 8.83579 8.89162C8.81657 9.18696 8.78582 9.44565 8.71769 9.72214Z" fill="#98272A"/>
<path fill-rule="evenodd" clip-rule="evenodd" d="M40.9569 4.32436H42.691L41.1445 11.8357H39.5483C39.6151 11.5585 39.6822 11.2827 39.7688 11.0034C39.4446 11.3165 39.1741 11.5752 38.8166 11.7496V10.6237C38.9526 10.5903 39.0902 10.5369 39.2076 10.4689C39.7195 10.1394 39.9201 9.55086 39.9201 8.96195L39.8873 8.66803C39.8541 8.39226 39.736 8.14816 39.4281 8.01116C39.2604 7.90619 39.0207 7.90619 38.8166 7.94177V6.60811C38.9176 6.60811 39.0029 6.64227 39.0902 6.64227C39.5822 6.76361 40.0054 7.09382 40.2465 7.59484L40.9569 4.32436ZM38.8166 11.7496C38.6985 11.819 38.564 11.8531 38.4078 11.8866C37.935 12.0075 37.6597 12.0428 37.1677 11.8531C36.5912 11.6446 36.3032 11.2471 36.0821 10.7105C35.5723 9.39572 36.131 7.52616 37.3889 6.8853C37.7963 6.67678 38.3226 6.55722 38.8166 6.60811V7.94177C38.6814 7.95921 38.5301 8.01116 38.4263 8.07948C38.137 8.27057 37.9494 8.54705 37.8484 8.87513C37.731 9.20321 37.6597 9.67149 37.7635 10.017C37.7963 10.1907 37.8659 10.3138 37.9661 10.4159C38.2038 10.6237 38.5301 10.6753 38.8166 10.6237" fill="#98272A"/>
<path fill-rule="evenodd" clip-rule="evenodd" d="M26.5452 6.73064L26.1888 7.83764C25.6969 7.70029 25.338 7.62912 24.8296 7.59532C24.6751 7.59532 24.5591 7.57788 24.4407 7.61133C24.0815 7.70029 23.9281 8.02766 24.201 8.27069C24.5396 8.61621 25.1353 8.70161 25.5599 8.97952C25.6637 9.04997 25.7814 9.15352 25.8995 9.25707C26.2367 9.79331 26.1888 10.3648 25.8328 10.9199C25.2706 11.7664 24.201 11.8532 23.232 11.7839C22.7051 11.7479 22.2627 11.6451 21.7351 11.5415L22.0601 10.2947C22.7051 10.469 23.1139 10.6253 23.7219 10.5537C23.9962 10.537 24.3893 10.5537 24.3893 10.1744C24.3198 9.89686 24.0658 9.72321 23.7922 9.60294C23.3861 9.41257 22.9438 9.29158 22.6212 8.96208C22.4315 8.6856 22.3794 8.47779 22.3794 8.13192C22.3794 7.78569 22.4839 7.54443 22.6366 7.31848C23.5049 6.05633 25.2901 6.41929 26.5452 6.73064Z" fill="#98272A"/>
<path fill-rule="evenodd" clip-rule="evenodd" d="M16.4678 6.6084L18.2687 6.57424C18.1332 7.2151 17.9958 7.85525 17.8599 8.5292C17.7774 8.96225 17.6069 9.51771 17.7264 9.94934C17.7953 10.1909 17.8763 10.2781 18.0996 10.3468C18.3547 10.4343 18.6796 10.3817 18.883 10.2258C19.4931 9.77676 19.6633 9.03128 19.816 8.30431L20.1898 6.57424H21.9412L20.852 11.8196C20.3429 11.836 19.8324 11.8022 19.3055 11.8196C19.3561 11.5239 19.4257 11.0912 19.4931 10.7969C19.3055 10.9709 19.1538 11.162 18.9494 11.3168C18.6954 11.5239 18.3882 11.663 18.0661 11.7499C17.6915 11.836 17.1817 11.836 16.8246 11.6798C16.4329 11.5239 16.1449 11.162 15.9915 10.7624C15.7882 10.2258 15.872 9.86358 15.958 9.30848C16.0932 8.40928 16.2816 7.49158 16.4678 6.6084Z" fill="#98272A"/>
<path fill-rule="evenodd" clip-rule="evenodd" d="M14.4615 4.32436H16.1957L14.6327 11.8357H13.0344C13.1026 11.5585 13.1875 11.2827 13.2542 11.0034C12.9506 11.3165 12.662 11.5752 12.3213 11.7496V10.6237C12.4579 10.5903 12.5921 10.5369 12.713 10.4689C13.2036 10.1394 13.4097 9.55086 13.4097 8.96195L13.3902 8.66803C13.3573 8.39226 13.2214 8.14816 12.9184 8.01116C12.7444 7.90619 12.5075 7.90619 12.3213 7.94177V6.60811C12.4065 6.60811 12.489 6.64227 12.5921 6.64227C13.0687 6.76361 13.4932 7.09382 13.7483 7.59484L14.4615 4.32436ZM12.3213 11.7496C12.186 11.819 12.0491 11.8531 11.911 11.8866C11.4383 12.0075 11.1507 12.0428 10.6573 11.8531C10.0937 11.6446 9.78796 11.2471 9.56608 10.7105C9.072 9.39572 9.63841 7.52616 10.8771 6.8853C11.2845 6.67678 11.8279 6.55722 12.3213 6.60811V7.94177C12.1686 7.95921 12.0333 8.01116 11.911 8.07948C11.6416 8.27057 11.4383 8.54705 11.3345 8.87513C11.2171 9.20321 11.1507 9.67149 11.2492 10.017C11.2845 10.1907 11.3523 10.3138 11.469 10.4159C11.7098 10.6237 12.0134 10.6753 12.3213 10.6237" fill="#98272A"/>
<path fill-rule="evenodd" clip-rule="evenodd" d="M1.52872 4.32376H3.34676L1.83516 11.8184H0" fill="#98272A"/>
<path fill-rule="evenodd" clip-rule="evenodd" d="M35.2486 9.72214L34.8219 11.8184H33.021C33.1734 11.1245 33.3261 10.3804 33.4634 9.67054C33.4973 9.51646 33.5329 9.35883 33.5832 9.20511C33.5832 9.06527 33.5832 8.94428 33.5983 8.82294C33.6856 7.97499 33.0525 7.81842 32.4934 8.07854C32.1705 8.23403 32.0178 8.45857 31.8487 8.77135C31.6799 9.04854 31.6275 9.32538 31.5769 9.65346L31.1163 11.8184H29.3835L30.3867 6.65875C30.9287 6.64132 31.4766 6.64132 32.0178 6.60787C31.9507 6.93595 31.8812 7.24802 31.8124 7.57681C32.4756 6.76301 33.3261 6.34811 34.3114 6.64132C35.2986 6.91851 35.5033 7.9241 35.3674 8.90977C35.3325 9.18696 35.2986 9.44565 35.2486 9.72214Z" fill="#98272A"/>
<path fill-rule="evenodd" clip-rule="evenodd" d="M27.9387 4.32376H29.7746L28.263 11.8184H26.425" fill="#98272A"/>
<path fill-rule="evenodd" clip-rule="evenodd" d="M61.9629 9.77662L61.5391 11.8867H59.7374C59.8734 11.1779 60.0439 10.4161 60.1815 9.72324C60.2116 9.55066 60.2472 9.39587 60.2825 9.22187C60.2825 9.10053 60.2969 8.97955 60.3154 8.85643C60.3849 8.00847 59.772 7.85511 59.1927 8.11273C58.8698 8.25329 58.7185 8.4949 58.5337 8.80697C58.3785 9.08381 58.3282 9.34428 58.2604 9.68908L57.8156 11.8707H56.0486L57.0703 6.67694C57.6108 6.6595 58.1738 6.64207 58.7185 6.62499C58.6497 6.95342 58.5805 7.28364 58.5138 7.59499C59.1605 6.7812 60.0439 6.36558 61.0135 6.64207C62.0317 6.93706 62.2187 7.95937 62.0831 8.92866C62.0646 9.22187 62.0139 9.48128 61.9629 9.77662Z" fill="#98272A"/>
<path fill-rule="evenodd" clip-rule="evenodd" d="M64.0037 4.32476H65.7875L64.8692 8.79013L66.6723 6.64267H68.6765L66.5713 9.01466L67.8945 11.8535H65.9905L64.82 9.10078L64.2585 11.8535H62.5085" fill="#98272A"/>
<path fill-rule="evenodd" clip-rule="evenodd" d="M55.7276 9.10016C55.5746 9.84457 55.4219 10.5715 55.2835 11.2992L55.2171 11.8863H53.7384L53.8425 11.0907C53.5874 11.3497 53.3138 11.575 53.0259 11.7316V10.8313C53.0413 10.8139 53.0745 10.8139 53.1077 10.7954C53.2974 10.6925 53.434 10.6235 53.5343 10.5185C53.773 10.2602 53.8932 9.86343 53.9917 9.53321H53.7384C53.52 9.53321 53.2625 9.5172 53.0259 9.53321V8.66782C53.3813 8.63366 53.7897 8.64967 54.1961 8.64967C54.1961 8.19883 54.027 7.85474 53.5682 7.7519C53.3648 7.71632 53.1793 7.71632 53.0259 7.71632V6.64205C54.1308 6.50506 55.3034 6.69472 55.7112 7.71632C55.9135 8.23477 55.7972 8.56356 55.7276 9.10016ZM53.0259 11.7316C52.7533 11.8703 52.4462 11.9579 52.1583 11.9906C51.4944 12.0593 50.7987 11.7494 50.5101 11.1252C50.3046 10.7786 50.3581 10.399 50.4402 10.0015C50.5275 9.62075 50.6984 9.41223 51.1366 9.10016C51.7666 8.78952 52.3816 8.68455 53.0259 8.66782V9.53321C52.7701 9.55065 52.5154 9.62075 52.3456 9.74244C52.0063 10.0015 51.8718 10.4861 52.2428 10.7786C52.464 10.9341 52.7701 10.9195 53.0259 10.8313V11.7316ZM53.0259 7.71632C52.7862 7.71632 52.5814 7.73304 52.312 7.80314C52.0063 7.87146 51.7851 7.97572 51.4944 8.11272L51.6984 6.90253C52.1087 6.79969 52.5465 6.69472 53.0259 6.64205" fill="#98272A"/>
<path fill-rule="evenodd" clip-rule="evenodd" d="M47.0088 4.93089H47.9431C48.7608 4.93089 50.0177 5.05187 50.2525 6.02117C50.3045 6.17702 50.321 6.33146 50.321 6.48696V6.50582C50.321 7.0748 50.0512 7.57795 49.5414 7.9256C49.1832 8.09711 48.8796 8.18429 48.5225 8.28784C49.4383 8.44334 50.0355 9.0842 49.8471 10.1058C49.5728 11.5242 48.266 11.748 47.0088 11.8362V10.5908C47.0762 10.5908 47.1461 10.5723 47.1964 10.5541C48.2489 10.3816 48.4858 9.13544 47.4858 8.91126C47.3303 8.87568 47.18 8.85682 47.0088 8.87568V7.76725C47.2129 7.76725 47.434 7.74981 47.6196 7.71708C48.1818 7.57795 48.9278 6.99011 48.3156 6.33146C48.0605 6.05675 47.4505 6.0902 47.0088 6.12436V4.93089ZM45.3096 4.93089H47.0088V6.12436H46.8554L46.4976 7.74981C46.6513 7.74981 46.8404 7.76725 47.0088 7.76725V8.87568C46.7705 8.87568 46.5154 8.91126 46.2778 8.92905L45.921 10.6584C46.2254 10.641 46.6356 10.641 47.0088 10.5908V11.8362C46.9057 11.8537 46.7904 11.8537 46.6838 11.8711H43.9321" fill="#98272A"/>
</svg>
