<svg width="58" height="16" viewBox="0 0 58 16" fill="none" xmlns="http://www.w3.org/2000/svg">
<path d="M18 14.9992H13.0233L10.0015 9.67969H14.9775L18 14.9992Z" fill="#800000"/>
<path d="M9.98403 1L12.4794 5.33239L6.96717 15H2L9.98403 1Z" fill="#800000"/>
<path d="M22.4229 9.02873L21.6309 7.52273L20.8 9.02873H22.4229ZM22.7498 9.65798H20.4648L19.8706 10.7292H19L21.6464 6.02148L24.1965 10.7292H23.3143L22.7498 9.65798Z" fill="#800000"/>
<path d="M25.9834 8.41926L24.5103 6.30859H25.4285L26.451 7.80243L27.5201 6.30859H28.4457L26.9082 8.41926L28.5243 10.731H27.6203L26.4385 9.03618L25.2169 10.731H24.3046L25.9834 8.41926Z" fill="#800000"/>
<path d="M30.0531 10.7313H29.2481V6.30859H30.0529L30.0531 10.7313Z" fill="#800000"/>
<path d="M34.0786 6.96209L33.4213 7.28567C33.2987 7.11 33.1839 6.99542 33.0712 6.94142C32.9561 6.87992 32.8084 6.84983 32.6252 6.84983C32.403 6.84983 32.2184 6.90267 32.0676 7.00967C31.9206 7.11159 31.8468 7.24042 31.8471 7.39642C31.8471 7.61525 32.0417 7.78792 32.4276 7.91859L32.9611 8.10117C33.3947 8.24217 33.7114 8.42292 33.9143 8.63033C34.1179 8.84117 34.2146 9.09675 34.2146 9.40375C34.2146 9.80909 34.052 10.1481 33.7223 10.4094C33.3945 10.6798 32.9817 10.8132 32.4928 10.8132C32.0289 10.8132 31.6451 10.7002 31.3448 10.4698C31.0445 10.239 30.8614 9.92025 30.7858 9.50984L31.6023 9.36017C31.6411 9.62175 31.7029 9.79767 31.7981 9.89825C31.9625 10.0879 32.2083 10.1851 32.5249 10.1851C32.7783 10.1851 32.9852 10.1175 33.1506 9.97467C33.3181 9.83667 33.3998 9.65867 33.3998 9.44559C33.3998 9.36017 33.3873 9.28025 33.3526 9.21134C33.3295 9.1365 33.2837 9.07283 33.2233 9.01225C33.1645 8.95525 33.0814 8.89392 32.9852 8.84275C32.8889 8.78875 32.7737 8.74309 32.64 8.6905L32.1247 8.51342C31.3894 8.2585 31.0276 7.88458 31.0276 7.39083C31.0276 7.05783 31.1816 6.78367 31.4871 6.56067C31.792 6.33375 32.1743 6.21825 32.6311 6.21875C33.2461 6.21875 33.7321 6.46675 34.0786 6.96209Z" fill="#800000"/>
<path d="M38.1817 10.1015H38.6807C39.0484 10.1015 39.3163 10.0434 39.4873 9.92701C39.6659 9.79726 39.758 9.63534 39.758 9.44084C39.758 9.24834 39.6659 9.08734 39.4949 8.95393C39.3257 8.83318 39.0264 8.76468 38.59 8.76468H38.1817V10.1015ZM38.1817 8.20684H38.4371C38.736 8.20684 38.9579 8.15293 39.096 8.04268C39.2339 7.93218 39.3057 7.77101 39.3057 7.55976C39.3057 7.34843 39.2339 7.18951 39.0918 7.08618C38.9466 6.97476 38.7404 6.92059 38.4671 6.92059H38.1817V8.20684ZM37.376 10.7313V6.30859H38.1817C38.5392 6.30859 38.8237 6.32834 39.0364 6.37543C39.2504 6.41976 39.4309 6.50076 39.5775 6.60484C39.7291 6.72218 39.8448 6.86109 39.9343 7.03293C40.0269 7.19801 40.0717 7.37209 40.0717 7.54551C40.0717 7.86218 39.9229 8.12993 39.6298 8.35018C39.9162 8.42984 40.1374 8.57043 40.3015 8.77134C40.4696 8.96909 40.5516 9.19784 40.5516 9.46676C40.5516 9.80943 40.4049 10.1015 40.108 10.3419C39.9315 10.4894 39.7321 10.593 39.5106 10.6476C39.2675 10.7043 38.9648 10.7313 38.5986 10.7313H37.376Z" fill="#800000"/>
<path d="M44.0196 9.02873L43.2246 7.52273L42.3903 9.02873H44.0196ZM44.3474 9.65798H42.0592L41.4644 10.7292H40.5932L43.2357 6.02148L45.7903 10.7292H44.9036L44.3474 9.65798Z" fill="#800000"/>
<path d="M46.3185 10.7302V6L50.2141 9.38167V6.3075H51.0211V11L47.1246 7.62983V10.7302H46.3185Z" fill="#800000"/>
<path d="M52.8277 8.07409L54.9096 6.30859H55.9834L53.5691 8.31226L56 10.731H54.9193L52.9957 8.76259L52.8277 8.90084V10.731H52.0196V6.30859H52.8277V8.07409Z" fill="#800000"/>
</svg>
