<svg width="69" height="16" viewBox="0 0 69 16" fill="none" xmlns="http://www.w3.org/2000/svg">
<path d="M6.99967 11.0281C7.56206 11.0281 7.80926 10.2865 7.35194 9.93421C7.3025 9.88476 7.24379 9.82605 7.17272 9.75498C4.94789 7.95655 4.27581 8.3768 2.05099 9.15551C1.983 9.19259 1.983 9.29765 2.05099 9.33473C2.72307 9.47224 3.35961 9.89713 4.20628 10.7809L6.75093 11.0281C6.82045 11.0281 6.90388 11.0281 6.99813 11.0281H6.99967ZM17.4486 2.02513L8.90313 10.5708C8.30367 11.2027 7.41992 11.5225 6.53771 11.4499L4.49211 11.2753L6.61187 13.3209C7.74283 14.3824 9.54123 14.1676 10.3879 12.8991L17.5923 2.13019C17.6294 2.05757 17.5243 1.95097 17.4502 2.02513H17.4486Z" fill="#EB1F48"/>
<path fill-rule="evenodd" clip-rule="evenodd" d="M20.5477 4.49281L22.0323 7.44053C22.0613 7.47384 22.1263 7.47384 22.1594 7.44053L23.6081 4.49281C23.6081 4.42758 23.6412 4.39844 23.7352 4.39844H25.3137C25.3468 4.39844 25.3744 4.4595 25.3468 4.49281L22.9162 9.15449V11.5013C22.9162 11.5637 22.8844 11.5957 22.8223 11.5957H21.3377C21.2755 11.5957 21.2438 11.5637 21.2438 11.5013V9.12118L18.8132 4.49281C18.78 4.42758 18.8132 4.39844 18.8739 4.39844H20.4207C20.4856 4.39844 20.5146 4.42758 20.5477 4.49281ZM30.9013 10.1995V11.5027C30.9013 11.5651 30.8682 11.5971 30.8033 11.5971H25.9434C25.8813 11.5971 25.8495 11.5651 25.8495 11.5027V4.49281C25.8495 4.43036 25.8813 4.39844 25.9434 4.39844H31.0574C31.1223 4.39844 31.1513 4.4595 31.1223 4.52612C31.0574 4.68294 30.7094 5.63637 30.6804 5.73074C30.6472 5.79181 30.6155 5.82511 30.5533 5.82511H27.5551C27.5109 5.82511 27.4902 5.85703 27.4902 5.91949V7.18934C27.4902 7.25179 27.5123 7.28371 27.5551 7.28371H30.2067C30.2688 7.28371 30.3006 7.31563 30.3006 7.37808V8.5494C30.3006 8.59381 30.2688 8.61463 30.2067 8.61463H27.5551C27.5109 8.61463 27.4902 8.64655 27.4902 8.709V10.008C27.4902 10.0705 27.5123 10.1024 27.5551 10.1024H30.8033C30.8682 10.1024 30.9013 10.1343 30.9013 10.1967V10.1995ZM36.2653 5.88757H33.8029C33.3941 5.88757 33.2063 6.08047 33.2063 6.3969C33.2063 6.71332 33.4604 6.87014 34.0238 7.09219L35.0058 7.44192C36.2045 7.85688 36.7735 8.33013 36.7735 9.50561C36.7735 10.7435 35.9518 11.5984 34.1509 11.5984H31.7203C31.6788 11.5984 31.6595 11.5665 31.6595 11.5041V10.2009C31.6595 10.1385 31.6802 10.1065 31.7203 10.1065H34.3429C34.8456 10.1065 35.0665 9.88448 35.0665 9.53475C35.0665 9.15588 34.8124 8.96713 34.1219 8.71316L33.2049 8.39674C32.2879 8.08032 31.4993 7.57099 31.4993 6.46074C31.4993 5.09651 32.5102 4.40121 33.9948 4.40121H36.2653C36.3274 4.40121 36.3592 4.43313 36.3592 4.49558V5.79458C36.3592 5.85703 36.3274 5.88895 36.2653 5.88895V5.88757ZM40.0203 11.5027V4.49281C40.0203 4.43036 40.052 4.39844 40.1142 4.39844H43.6814C45.0389 4.39844 45.6079 5.38101 45.6079 6.26922C45.6079 6.96868 45.2599 7.60152 44.6302 7.88464C45.514 8.17192 45.9228 8.77284 45.9228 9.6319C45.9228 10.8657 45.0389 11.5971 43.5875 11.5971H40.1142C40.052 11.5971 40.0203 11.5651 40.0203 11.5027ZM41.6609 5.88757V7.21987C41.6609 7.28232 41.6941 7.31424 41.759 7.31424H43.1787C43.6814 7.31424 43.9963 7.06305 43.9963 6.55372C43.9963 6.08047 43.7145 5.7932 43.1787 5.7932H41.759C41.6941 5.7932 41.6609 5.82511 41.6609 5.88757ZM41.6609 8.71178V10.1051C41.6609 10.1676 41.6941 10.1995 41.759 10.1995H43.3997C43.9686 10.1995 44.2504 9.88309 44.2504 9.43899C44.2504 8.96575 43.9963 8.61741 43.3997 8.61741H41.759C41.6941 8.61741 41.6609 8.64933 41.6609 8.71178ZM48.5744 4.39982H50.2482C50.3421 4.39982 50.3421 4.42897 50.3752 4.4942L52.7727 11.5041C52.7727 11.5651 52.7727 11.5984 52.712 11.5984H51.1942C51.1334 11.5984 51.1334 11.5651 51.1003 11.5041L50.6252 10.0774C50.6252 10.0122 50.5934 9.97886 50.5313 9.97886H48.3548C48.294 9.97886 48.2609 10.0122 48.2277 10.0774L47.7858 11.5041C47.7527 11.5651 47.7527 11.5984 47.6588 11.5984H46.1783C46.1134 11.5984 46.0844 11.5651 46.1134 11.4708L48.4819 4.4942C48.4819 4.43175 48.5136 4.39982 48.5758 4.39982H48.5744ZM50.2482 8.77423L49.4582 6.17623C49.4582 6.111 49.3975 6.111 49.3975 6.17623L48.6075 8.77423C48.5854 8.83668 48.6075 8.8686 48.6683 8.8686H50.1819C50.2261 8.8686 50.2468 8.83668 50.2468 8.77423H50.2482ZM54.8263 11.5984H53.3735C53.3293 11.5984 53.3086 11.5665 53.3086 11.5041V4.4942C53.3086 4.43175 53.3307 4.39982 53.3735 4.39982H54.5391L54.604 4.42897L57.8231 8.64655V4.4942C57.8231 4.43175 57.8439 4.39982 57.8839 4.39982H59.3368C59.3989 4.39982 59.4307 4.43175 59.4307 4.4942V11.5318C59.4307 11.5651 59.3975 11.5971 59.3699 11.5971H58.2319L58.167 11.5637L54.9188 7.37808V11.5013C54.9188 11.5637 54.8871 11.5957 54.8249 11.5957L54.8263 11.5984ZM60.599 11.5041V4.4942C60.599 4.43175 60.6322 4.39982 60.6971 4.39982H62.1168C62.1789 4.39982 62.2107 4.43175 62.2107 4.4942V7.37947C62.2107 7.41278 62.2714 7.44053 62.3046 7.37947L64.8001 4.4942C64.8609 4.42897 64.894 4.39982 64.9879 4.39982H66.5347C66.5955 4.39982 66.6286 4.4942 66.5678 4.5275L64.0723 7.5696C64.0502 7.59181 64.0502 7.62372 64.0723 7.66397L66.7888 11.4708C66.8178 11.5318 66.7888 11.5984 66.7239 11.5984H65.0832C65.0225 11.5984 64.9893 11.5651 64.9893 11.5332L63.0296 8.77423C62.9882 8.73259 62.9578 8.73259 62.9357 8.77423L62.2438 9.50561C62.2217 9.52504 62.2107 9.54586 62.2107 9.56667V11.5027C62.2107 11.5651 62.1789 11.5971 62.1168 11.5971H60.6971C60.6322 11.5971 60.599 11.5651 60.599 11.5027V11.5041Z" fill="#002EDA"/>
</svg>
