<svg width="69" height="16" viewBox="0 0 69 16" fill="none" xmlns="http://www.w3.org/2000/svg">
<g clip-path="url(#clip0_3875_3553)">
<path d="M14.7416 7.96215C14.7416 8.23428 14.9613 8.45486 15.2322 8.45486H16.8238L14.6717 10.8426V11.6775H18.2922V11.2105C18.2922 10.9383 18.0725 10.7178 17.8016 10.7178H16.1323L18.2922 8.33002V7.49512H14.7416V7.96215Z" fill="black"/>
<path d="M21.7564 8.00873L21.0113 10.3434L20.2314 8.00002C20.1311 7.69854 19.85 7.49525 19.5335 7.49525H18.8126L20.4441 11.6933C20.3859 11.9029 20.2596 11.9809 20.1188 11.9932V11.993H19.657C19.386 11.993 19.1664 12.2136 19.1664 12.4857V12.9495C19.1664 12.9495 20.1589 12.9495 20.18 12.9495C20.356 12.9495 20.5114 12.9287 20.6462 12.8871C20.7808 12.8454 20.9012 12.7778 21.0074 12.6841C21.1135 12.5905 21.2106 12.4696 21.2988 12.3213C21.3868 12.1731 21.4697 11.9922 21.5474 11.779L23.1478 7.49512H22.4572C22.1373 7.49525 21.854 7.70279 21.7564 8.00873Z" fill="black"/>
<path d="M27.6383 7.97493C27.4622 7.79035 27.2602 7.65112 27.0323 7.55744C26.8043 7.46383 26.5687 7.41699 26.3253 7.41699C26.0146 7.41699 25.7568 7.48073 25.5523 7.60815C25.3477 7.7357 25.1728 7.89822 25.0279 8.09583V7.9877C25.0279 7.71557 24.8083 7.49499 24.5373 7.49499H23.847V12.4333C23.847 12.7054 24.0666 12.926 24.3375 12.926H25.0279V11.1313C25.1677 11.2978 25.3399 11.4434 25.5445 11.5682C25.7491 11.6931 26.0094 11.7555 26.3253 11.7555C26.5739 11.7555 26.8121 11.7087 27.0401 11.6151C27.2679 11.5214 27.4686 11.3823 27.6422 11.1976C27.8157 11.013 27.9555 10.7867 28.0618 10.5187C28.1679 10.2509 28.2211 9.94267 28.2211 9.59409V9.57848C28.2211 9.23002 28.1679 8.92183 28.0618 8.65383C27.9555 8.38596 27.8144 8.1597 27.6383 7.97493ZM27.0401 9.59409C27.0401 9.77099 27.0129 9.92964 26.9585 10.0701C26.9042 10.2105 26.8303 10.3315 26.7371 10.4329C26.6439 10.5344 26.5363 10.6124 26.4147 10.667C26.2929 10.7216 26.1622 10.7489 26.0223 10.7489C25.8825 10.7489 25.7516 10.7216 25.63 10.667C25.5082 10.6124 25.402 10.5343 25.3114 10.4329C25.2207 10.3315 25.1483 10.2093 25.0939 10.0662C25.0396 9.92312 25.0123 9.76577 25.0123 9.59409V9.57848C25.0123 9.4068 25.0396 9.24957 25.0939 9.10641C25.1483 8.96338 25.2208 8.84112 25.3114 8.73964C25.402 8.63822 25.5082 8.56015 25.63 8.50557C25.7516 8.45093 25.8825 8.42364 26.0223 8.42364C26.1622 8.42364 26.2929 8.45093 26.4147 8.50557C26.5363 8.56015 26.6439 8.63822 26.7371 8.73964C26.8303 8.84112 26.9042 8.96338 26.9585 9.10641C27.0128 9.24957 27.0401 9.40686 27.0401 9.57848V9.59409Z" fill="black"/>
<path d="M32.7962 8.83325C32.7159 8.56015 32.5916 8.31828 32.4233 8.10757C32.255 7.89686 32.0438 7.72912 31.7902 7.60428C31.5363 7.47944 31.2359 7.41699 30.8889 7.41699C30.5833 7.41699 30.3049 7.47428 30.0537 7.58867C29.8024 7.70319 29.5862 7.85925 29.405 8.05686C29.2237 8.25461 29.0826 8.48602 28.9816 8.75132C28.8806 9.01661 28.8301 9.29751 28.8301 9.59402V9.60964C28.8301 9.93222 28.8845 10.2249 28.9932 10.4875C29.102 10.7503 29.2535 10.9779 29.4478 11.1703C29.642 11.3628 29.8724 11.5111 30.1392 11.6151C30.4059 11.7191 30.6947 11.7711 31.0054 11.7711C31.3835 11.7711 31.7124 11.7022 31.9921 11.5643C32.2718 11.4266 32.51 11.2354 32.7069 10.9908L32.3524 10.6757C32.1866 10.5283 31.9453 10.5143 31.758 10.6329C31.4706 10.8147 31.1691 10.8191 31.021 10.8191C30.7569 10.8191 30.5354 10.7502 30.3567 10.6123C30.178 10.4745 30.0601 10.2703 30.0032 9.99983H32.9012C32.9063 9.94267 32.9102 9.88802 32.9128 9.83596C32.9154 9.78402 32.9167 9.73454 32.9167 9.6877C32.9167 9.39112 32.8765 9.10635 32.7962 8.83325ZM29.9877 9.25854C30.0343 8.98809 30.134 8.77215 30.2868 8.61086C30.4395 8.4497 30.6403 8.36899 30.8889 8.36899C31.1374 8.36899 31.3368 8.45093 31.4871 8.6148C31.6373 8.77867 31.7305 8.99325 31.7668 9.25854H29.9877Z" fill="black"/>
<path d="M12.4384 7.49414H5.80834C5.57953 7.49414 5.37038 7.62395 5.26805 7.8295L3.57241 11.2356C3.47201 11.4372 3.61802 11.6745 3.84253 11.6745H10.4726C10.7014 11.6745 10.9105 11.5447 11.0129 11.3392L12.7085 7.93311C12.8089 7.7315 12.6629 7.49414 12.4384 7.49414Z" fill="url(#paint0_linear_3875_3553)"/>
<path d="M9.55611 6.84503L11.2517 3.43897C11.3521 3.23729 11.2061 3 10.9816 3H4.35153C4.12272 3 3.91357 3.12981 3.81124 3.33535L2.1156 6.74142C2.0152 6.9431 2.16121 7.18039 2.38572 7.18039H9.01575C9.24463 7.18039 9.45378 7.05052 9.55611 6.84503Z" fill="url(#paint1_linear_3875_3553)"/>
</g>
<defs>
<linearGradient id="paint0_linear_3875_3553" x1="10.8516" y1="11.6454" x2="5.40641" y2="7.5392" gradientUnits="userSpaceOnUse">
<stop stop-color="#007DC3"/>
<stop offset="1" stop-color="#22BDE1"/>
</linearGradient>
<linearGradient id="paint1_linear_3875_3553" x1="9.37413" y1="7.19355" x2="4.05701" y2="3.02249" gradientUnits="userSpaceOnUse">
<stop stop-color="#E94578"/>
<stop offset="1" stop-color="#FC8440"/>
</linearGradient>
<clipPath id="clip0_3875_3553">
<rect width="30.8333" height="10" fill="white" transform="translate(2.08333 3)"/>
</clipPath>
</defs>
</svg>
